<svg height="64" viewBox="0 0 64 64" width="64" xmlns="http://www.w3.org/2000/svg" xmlns:xlink="http://www.w3.org/1999/xlink"><linearGradient gradientTransform="matrix(1 0 0 -1 -822 -1026)" gradientUnits="userSpaceOnUse" id="a" x1="886.03" x2="854.03" y1="-1089.998" y2="-1057.998"><stop offset=".316" stop-color="#fff" stop-opacity="0"/><stop offset=".351" stop-color="#e9e9e9" stop-opacity=".05"/><stop offset=".454" stop-color="#acacac" stop-opacity=".202"/><stop offset=".557" stop-color="#787878" stop-opacity=".352"/><stop offset=".657" stop-color="#4d4d4d" stop-opacity=".498"/><stop offset=".753" stop-color="#2b2b2b" stop-opacity=".638"/><stop offset=".844" stop-color="#131313" stop-opacity=".772"/><stop offset=".929" stop-color="#050505" stop-opacity=".896"/><stop offset="1"/></linearGradient><path fill="url(#a)" opacity=".2" d="M64.029 64V30.059L49 15.029 15.059 48.971 30.088 64z"/><circle cx="32" cy="32" fill="#3A5BA0" r="24"/><defs><circle cx="32.029" cy="32" id="b" r="24"/></defs><clipPath id="c"><use overflow="visible" xlink:href="#b"/></clipPath><linearGradient gradientTransform="matrix(1 0 0 -1 -274 -299)" gradientUnits="userSpaceOnUse" id="d" x1="349.447" x2="298.612" y1="-367.892" y2="-325.236"><stop offset=".582" stop-opacity="0"/><stop offset=".631" stop-opacity=".117"/><stop offset="1"/></linearGradient><path clip-path="url(#c)" d="M70.029 54h2v-5h-.105v-.105h-.107v-.106h-.105v-.106h-.105v-.104h-.106v-.106h-.106v-.105h-.105v-.106h-.105v-.106h-.106v-.105h-.106v-.105h-.105v-.116h-.105v-.105h-.105v-.105h-.106v-.105h-.106v-.106h-.105v-.106h-.105v-.105h-.106v-.106h-.106v-.112h-.105v-.106h-.106v-.106h-.106v-.105h-.105v-.105h-.105v-.108h-.106v-.106h-.106v-.104h-.105v-.11h-.105v-.106h-.106v-.105h-.106v-.105h-.105v-.106h-.106v-.104h-.106v-.107h-.104v-.105h-.106v-.105h-.105v-.106h-.105v-.111h-.106v-.11h-.106v-.106h-.105v-.105h-.105v-.105h-.106v-.105h-.106v-.105h-.105v-.106h-.106v-.106h-.106v-.105h-.105v-.105h-.105V43.9h-.106v-.104h-.106v-.106h-.105v-.105h-.105v-.105h-.106v-.106h-.106v-.114h-.105v-.107h-.106v-.104h-.106v-.108h-.105v-.105h-.105v-.105h-.106v-.106h-.106v-.106h-.105v-.104h-.105v-.106h-.106v-.105h-.105v-.114h-.106v-.105h-.105v-.106h-.107v-.106h-.104v-.104h-.106v-.106h-.105v-.105h-.105v-.108h-.106v-.106h-.106v-.106h-.105v-.105h-.106v-.113h-.106v-.105h-.105v-.106h-.105v-.104h-.106v-.106h-.106v-.106h-.105v-.105h-.105v-.108h-.106v-.11h-.106v-.107h-.105v-.105h-.106v-.105h-.106v-.105h-.105v-.108h-.105v-.106h-.106v-.104h-.106v-.108h-.105v-.106h-.105v-.106h-.106v-.11h-.104v-.106h-.107v-.106h-.105v-.104h-.107v-.106h-.104v-.105h-.106v-.105h-.105v-.106h-.105v-.112h-.106v-.106h-.106v-.105h-.105v-.109h-.105v-.105h-.106v-.107h-.106v-.104h-.105v-.106h-.106v-.105h-.106v-.105h-.105v-.106h-.105v-.105h-.106v-.106h-.106v-.105h-.105v-.105h-.105v-.111h-.106v-.106h-.106v-.105h-.105v-.105h-.106v-.113h-.106v-.105h-.104v-.105h-.106v-.106h-.105v-.104h-.105V35.5h-.106v-.105h-.106v-.105h-.105v-.11h-.105v-.105h-.106v-.106h-.106v-.108h-.105v-.105h-.106v-.105h-.106v-.105h-.105v-.105h-.105v-.106h-.106v-.106h-.106v-.105h-.105v-.114h-.105v-.105h-.106v-.106h-.106v-.104h-.105v-.106h-.106v-.109h-.104v-.105h-.106v-.105h-.106v-.106h-.105v-.106h-.107v-.105h-.104v-.105h-.106v-.108h-.105v-.106h-.105v-.106h-.106v-.105h-.106v-.113h-.105v-.107h-.106v-.106h-.106v-.107h-.105v-.106h-.105v-.107h-.106v-.106h-.106v-.106h-.104v-.105h-.106v-.107h-.106v-.106h-.106v-.107h-.104v-.106h-.107v-.106h-.106v-.108h-.105v-.105h-.105v-.106h-.106v-.106h-.106v-.107h-.105v-.106h-.105v-.106h-.106v-.106h-.106v-.108h-.105v-.106h-.105v-.106h-.107v-.106h-.105v-.106h-.105v-.106h-.105v-.105h-.105v-.107h-.106v-.108h-.106v-.106h-.105v-.106h-.105v-.106h-.106v-.106h-.106v-.106h-.105v-.105h-.106v-.107h-.106v-.106h-.105v-.105h-.105v-.106h-.106v-.111h-.106v-.106h-.104v-.106h-.106v-.106h-.105v-.106h-.107v-.107h-.104v-.105H50.4v-.106h-.105V27.1h-.107v-.106h-.105v-.106h-.105v-.106h-.105v-.107h-.107v-.106h-.105v-.106h-.105v-.106h-.105v-.107h-.107v-.106h-.105v-.106h-.105v-.105h-.106v-.107h-.106v-.106h-.105v-.106h-.105v-.106h-.106v-.106H48.5v-.107h-.105v-.105h-.105v-.11h-.106v-.106h-.104v-.106h-.107v-.106h-.106v-.106h-.104v-.106h-.106v-.106h-.106v-.106h-.105v-.106h-.105v-.106h-.106v-.106h-.106v-.11h-.106v-.106h-.104v-.106h-.106v-.106h-.106v-.107h-.105v-.106h-.106v-.106h-.106v-.106h-.105v-.107h-.105v-.106h-.106v-.106h-.106v-.106h-.105v-.106h-.105v-.106h-.106v-.106h-.106v-.107h-.105v-.106h-.106v-.107h-.104v-.105h-.107v-.109h-.105v-.106h-.105v-.106h-.105v-.106h-.106v-.107h-.106v-.106h-.106v-.106h-.104v-.106h-.106v-.107h-.106v-.106h-.105v-.106h-.106v-.106h-.106v-.106h-.105v-.106h-.105v-.106h-.106v-.106h-.106v-.106h-.105v-.106h-.105v-.106h-.106v-.106h-.106v-.107h-.105v-.106h-.106v-.106h-.106v-.106h-.105v-.106h-.105v-.106h-.106v-.106h-.106v-.111h-.105v-.106h-.105v-.106h-.106v-.106h-.104v-.106h-.106v-.106h-.106v-.107h-.105v-.105h-.106v-.107h-.106v-.106h-.105v-.107h-.105v-.106h-.106v-.106h-.106v-.106h-.105v-.107h-.105v-.105h-.106v-.107h-.106v-.106h-.105v-.106h-.106V17h-4c-4.072 0-7 2.435-7 7v4h-5v5h.106v.105h.106v.106h.107v.106h.106v.105h.106v.105h.107v.105h.106v.106h.106v.106h.107v.105h.106v.105h.106v.106h.107v.106h.106v.104h.106v.106h.107v.105h.105v.105h.106v.114h.107v.106h.106v.104h.106v.107h.106v.104h.106v.106h.106v.106h.106v.104h.106v.106h.106v.106h.107v.104h.106v.107h.106v.105h.106v.105h.106v.106h.106v.104h.106v.107h.106v.113h.107v.105h.106v.107h.106v.104h.107v.106h.106v.105h.105v.105h.106v.106h.107v.104H28.7v.107h.107v.105h.106v.105h.106v.106H29V47h.106v.105h.106v.106h.106v.106h.106v.105h.106v.105h.107v.105h.106v.106h.106v.106h.106v.105h.106v.105h.107v.106h.106v.106h.106v.104h.106v.106h.106v.105h.106v.119h.107v.106h.106v.106h.106v.104h.107v.107h.106v.105h.106v.105h.107v.105h.106v.105h.106v.107h.106v.105h.106v.105h.107v.107h.106v.104h.106v.106h.106v.105h.106v.105h.107v.113h.106v.107h.105v.104h.106v.106h.106v.105h.105v.105h.105v.106h.105v.105h.105v.106h.106v.105h.106v.107h.106v.104h.106v.106h.104v.105h.106v.105h.105v.105h.113v.105h.106v.114h.106v.106h.104v.105h.106v.106h.106v.104h.105v.107h.105v.105h.106v.105h.106v.105h.105v.106h.106v.106h.106v.105h.105v.105h.105v.106h.105v.104h.107v.106h.105v.106h.105v.113h.106v.106h.104v.106h.107v.104h.106v.106h.104v.105h.106v.105h.106v.106h.105v.106h.107v.105h.104v.105h.146v.105h.106v.106h.105v.106h.106v.105h.106v.105h.105v.106h.105v.113h.106v.105h.106v.105h.105v.105h.105v.105h.106v.106h.104v.106h.107v.105h.106v.106h.106v.104h.104v.106h.106v.147h.106v.106h.106v.106h.104v.104h.106v.106h.105v.105h.105v.107h.106v.104h.106v.106h.107v.105h.104v.106h.106v.104h.105v.107h.105v.105h.106v.105h.106v.105h.105v.106h.105v.113h.106v.105h.106v.105h.105v.105h.106v.107h.106v.105h.105v.105h.105v.105h.106v.106h.106v.104h.104v.106h.106v.106h.106v.105h.104v.105h.107v.105h.105v.107h.13v.105h.104v.114h.106v.104h.105v.106h.105v.106h.106v.105h.106v.105h.105v.105h.107v.107h.104v.104h.104v.106h.107v.105h.106v.105h.106v.106h.105v.106h.105v.105h.106v.105h.113v.107h.104v.104h.106v.106h.106v.105h.106v.105h.104v.106h.107v.104h.104v.107h.106v.105h.106v.105h.106v.106h.14v.106h.107v.105h.105v.105h.105v.105h.105v.105h.106v.106h.106v.106h.105v.105h.106v.105h.106v.106h.105v.105h.105v.106h.106v.105h.106v.105h.105v.106h.105v.106h.106v.104h.106v.106h.105v.105h.105v.107h.106v.104h.105v.106h.106v.105h.105v.105h.105v.131h.107v.104h.105v.106h.105v.105h.107v.105h.104v.106h.106v.106h.105v.105h.106v.105h.106v.105h.105v.106h.105v.106h.106v.105h.106v.105h.105v.106h.105v.104h.106v.107h.106v.105h.104v.105h.106v.105h.107v.106h.105v.106h.105v.105h.106v.105h.104v.105h.107v.106h.105v.166h.105v.105h.107v.105h.105v.106h.105v.106h.106v.105h.105v.105h.106v.105h.105v.106h.105v.106h.106v.104h.106v.106h.105v.105h.105v.107h.106v.104h.106v.106h.105v.105h.105v.114h.107v.104h.104v.106h.106v.106h.106v.105h.106v.105h.105v.106h.105v.106h.105v.105h.105v.106h.106v.104h.106v.106h.106v.106h.106v.105h.105v.105h.105v.106h.105v.104h.106v.115h.106v.105h.105v.105h.105v.105h.106v.106h.106v.106h.105v.105h.105v.105h.107v.105h.105v.106h.105v.106h.106v.105h.106v.105h.105v.106h.105v.106h.106v.104h.106v.106h.105v.105h.105v.106h.105v.106h.106v.104h.106v.106h.106v.105h.106v.105h.104v.106h.106v.106h.105v.105h.105v.106h.106v.104h.106v.106h.105v.106h.106v.105h.106v.105h.105v.106h.105v.122h.106v.105h.106v.105h.105v.105h.105v.106h.106v.106h.106v.105h.105v.105h.105v.106h.107v.104h.105v.106h.105v.106h.105v.105h.105v.105h.107v.106h.105v.104h.172v.107h.104v.105h.106v.105h.106v.106h.105v.106h.106v.105h.106v.105h.105v.105h.105v.105h.106v.106h.106v.106h.105V79h6V65h4l1-5h-.127l.021-.105h-.124l.021-.106h-.128l.021-.104h-.129l.021-.106h-.129l.021-.106H71.3l.021-.105h-.127l.021-.106h-.128l.021-.106h-.06l.021-.105h-.127l.021-.105h-.128l.021-.105h-.126l.021-.105h-.128l.021-.106h-.129l.021-.106h-.128l.021-.105h-.127l.021-.105h-.128l.021-.106h-.128l.021-.106h-.129l.021-.104h-.121l.021-.106h-.127l.021-.105h-.128l.021-.106h-.129l.021-.106h-.128l.021-.105h-.127l.021-.105h-.128l.021-.106h-.128l.021-.104h-.129l.021-.106h-.128l.021-.106h-.127l.021-.105h-.128l.021-.106h-.129l.021-.104h-.128l.021-.107h-.127l.021-.105h-.129l.021-.105h-.127l.021-.105h-.127l.021-.106h-.128l.021-.106h-.129l.021-.105h-.128l.021-.105h-.127l.021-.105h-.128l.021-.105h-.129l.021-.106h-.129l.021-.106h-.113l.021-.105h-.104c.27-.952 1.116-1.257 2.892-1.257z" fill="url(#d)" opacity=".5"/><path d="M39 33l1-5-5 .001V24c0-1.544.784-2 3-2h2v-5h-4c-4.072 0-7 2.435-7 7v4h-5v5h5v14h6V33h4z" fill="#FFF"/></svg>