<svg height="64" viewBox="0 0 64 64" width="64" xmlns="http://www.w3.org/2000/svg" xmlns:xlink="http://www.w3.org/1999/xlink"><linearGradient gradientTransform="matrix(1 0 0 -1 -1918 -2480)" gradientUnits="userSpaceOnUse" id="a" x1="1982.031" x2="1950.031" y1="-2543.999" y2="-2511.999"><stop offset=".316" stop-color="#fff" stop-opacity="0"/><stop offset=".351" stop-color="#e9e9e9" stop-opacity=".05"/><stop offset=".454" stop-color="#acacac" stop-opacity=".202"/><stop offset=".557" stop-color="#787878" stop-opacity=".352"/><stop offset=".657" stop-color="#4d4d4d" stop-opacity=".498"/><stop offset=".753" stop-color="#2b2b2b" stop-opacity=".638"/><stop offset=".844" stop-color="#131313" stop-opacity=".772"/><stop offset=".929" stop-color="#050505" stop-opacity=".896"/><stop offset="1"/></linearGradient><path fill="url(#a)" opacity=".2" d="M64.029 64V30.059L49 15.029 15.059 48.971 30.088 64z"/><circle cx="32" cy="32" fill="#01AEF2" r="24"/><defs><circle cx="32.029" cy="32" id="b" r="24"/></defs><clipPath id="c"><use overflow="visible" xlink:href="#b"/></clipPath><linearGradient gradientTransform="matrix(1 0 0 -1 -274 -299)" gradientUnits="userSpaceOnUse" id="d" x1="350.531" x2="293.511" y1="-375.514" y2="-318.493"><stop offset=".525" stop-opacity="0"/><stop offset=".593" stop-opacity=".141"/><stop offset="1"/></linearGradient><path clip-path="url(#c)" d="M78.113 67.497a.998.998 0 0 1-.08-.627c.339-1.677.351-3.354.072-5.044a13.958 13.958 0 0 0-3.638-7.32c-.034-.037-.071-.068-.106-.105-.033-.037-.072-.07-.107-.107-.033-.036-.07-.068-.104-.104-.034-.039-.073-.071-.107-.108s-.072-.069-.107-.106c-.033-.035-.069-.067-.104-.104s-.072-.069-.105-.105c-.033-.037-.072-.068-.105-.105-.035-.038-.074-.072-.11-.109-.032-.035-.069-.066-.103-.103-.036-.039-.075-.074-.112-.112-.03-.034-.065-.063-.098-.097-.035-.039-.074-.073-.11-.111-.033-.036-.07-.067-.104-.104-.034-.037-.073-.071-.109-.108-.033-.036-.07-.067-.104-.104-.037-.037-.076-.072-.112-.11-.032-.035-.068-.065-.101-.101-.035-.037-.074-.072-.108-.108s-.071-.069-.104-.104c-.035-.037-.072-.07-.107-.107-.033-.036-.071-.068-.105-.105-.033-.037-.072-.068-.105-.105-.034-.037-.073-.07-.107-.107s-.072-.068-.105-.105c-.035-.037-.073-.07-.108-.107-.033-.036-.07-.066-.104-.104-.033-.037-.072-.069-.105-.106-.034-.037-.072-.069-.105-.106-.035-.037-.072-.068-.106-.105s-.072-.069-.106-.105c-.035-.037-.072-.07-.107-.107-.033-.036-.07-.068-.104-.104-.034-.038-.073-.071-.108-.11-.033-.034-.069-.065-.104-.101-.034-.036-.07-.069-.105-.106-.033-.036-.071-.069-.105-.105-.035-.038-.074-.072-.109-.109-.033-.037-.072-.07-.107-.107-.031-.034-.066-.064-.1-.098-.035-.041-.076-.076-.113-.115-.033-.036-.07-.067-.104-.104-.034-.036-.071-.067-.104-.104-.034-.037-.072-.071-.107-.108-.033-.035-.07-.068-.104-.104-.035-.039-.075-.073-.111-.112-.032-.034-.068-.065-.102-.101-.035-.039-.074-.072-.109-.11-.034-.035-.071-.067-.104-.104-.035-.037-.072-.068-.106-.105s-.072-.069-.106-.105c-.033-.037-.072-.07-.105-.106-.034-.037-.072-.069-.106-.106s-.073-.07-.108-.107c-.033-.036-.07-.068-.104-.104-.035-.038-.072-.071-.107-.108-.033-.035-.07-.067-.104-.104-.034-.037-.071-.068-.106-.105-.033-.037-.071-.069-.105-.106s-.072-.069-.105-.106c-.033-.035-.07-.067-.104-.104-.035-.039-.075-.074-.111-.112-.032-.034-.069-.065-.103-.103-.034-.037-.072-.07-.107-.106-.033-.038-.072-.071-.107-.106-.032-.036-.068-.067-.103-.104-.034-.037-.073-.072-.11-.109-.033-.037-.069-.069-.104-.105-.035-.038-.074-.07-.109-.109-.033-.035-.07-.065-.104-.102-.034-.038-.073-.072-.107-.109-.033-.035-.07-.066-.104-.103-.034-.037-.072-.071-.107-.108-.034-.037-.071-.068-.106-.105-.034-.038-.073-.071-.108-.109-.032-.035-.069-.066-.104-.104-.033-.036-.071-.069-.105-.105-.035-.038-.072-.07-.107-.107-.033-.037-.071-.068-.104-.104-.034-.037-.072-.069-.106-.106-.033-.037-.072-.068-.105-.105-.034-.037-.072-.068-.105-.105-.035-.037-.074-.07-.109-.108-.031-.035-.067-.065-.102-.101-.037-.041-.078-.076-.115-.117-.029-.031-.063-.062-.095-.094-.038-.041-.079-.078-.118-.117-.031-.035-.065-.064-.098-.099-.035-.038-.074-.071-.109-.108-.035-.039-.072-.071-.106-.107-.033-.036-.07-.068-.104-.104-.035-.039-.074-.074-.109-.111-.033-.035-.069-.066-.104-.102-.033-.037-.07-.07-.104-.106-.035-.038-.074-.071-.11-.109-.033-.036-.07-.067-.104-.104-.035-.037-.074-.071-.109-.108-.032-.035-.066-.065-.1-.101-.037-.038-.077-.074-.114-.113-.032-.035-.068-.066-.103-.102-.035-.037-.072-.071-.107-.108-.034-.037-.072-.07-.107-.106-.033-.035-.068-.067-.104-.104-.034-.037-.072-.071-.107-.107-.033-.037-.072-.07-.105-.106-.034-.037-.073-.07-.108-.107-.032-.036-.069-.067-.104-.104-.035-.038-.076-.073-.111-.111-.032-.035-.068-.066-.102-.102-.035-.037-.072-.069-.106-.106s-.072-.069-.106-.106c-.033-.037-.072-.068-.105-.105-.034-.037-.072-.069-.106-.105-.034-.037-.073-.07-.106-.107-.034-.036-.072-.069-.106-.106-.034-.036-.071-.069-.106-.104-.032-.036-.069-.068-.104-.104-.033-.036-.072-.071-.107-.108-.033-.035-.07-.067-.104-.104-.035-.038-.074-.072-.11-.109-.031-.035-.064-.063-.097-.098-.069-.074-.146-.143-.218-.217-.035-.038-.073-.07-.108-.107-.034-.037-.071-.07-.104-.105-.034-.037-.072-.071-.107-.107-.033-.037-.072-.07-.105-.105-.034-.037-.072-.07-.107-.107-.034-.037-.072-.07-.105-.105s-.07-.067-.104-.104c-.034-.037-.071-.07-.106-.107s-.072-.069-.106-.106-.072-.069-.106-.106c-.033-.037-.072-.068-.105-.105-.034-.037-.072-.068-.106-.105-.034-.039-.073-.072-.108-.108-.032-.036-.069-.067-.104-.103-.035-.039-.074-.074-.109-.111-.033-.035-.07-.067-.104-.104-.034-.037-.071-.068-.106-.105-.033-.036-.07-.068-.104-.104-.034-.038-.073-.071-.108-.108-.033-.037-.072-.07-.106-.107-.033-.035-.069-.066-.103-.102-.035-.039-.076-.073-.111-.111-.032-.036-.069-.067-.104-.104-.033-.037-.072-.07-.105-.105-.033-.036-.07-.068-.104-.104-.036-.039-.075-.074-.112-.113-.031-.035-.068-.066-.103-.103-.033-.036-.069-.067-.104-.104-.037-.039-.076-.074-.113-.113-.032-.035-.068-.064-.102-.1-.035-.039-.074-.073-.109-.111-.033-.035-.069-.066-.104-.102-.033-.037-.072-.07-.107-.107-.033-.037-.071-.07-.105-.107-.035-.037-.072-.07-.107-.106-.035-.038-.073-.071-.107-.108-.033-.035-.07-.066-.104-.104-.035-.036-.072-.068-.106-.105s-.072-.068-.106-.105c-.033-.037-.072-.069-.105-.105-.035-.038-.074-.072-.109-.109-.031-.035-.068-.065-.102-.102-.034-.037-.073-.07-.107-.107-.035-.039-.074-.072-.109-.109-.031-.034-.067-.065-.102-.102-.035-.039-.074-.072-.111-.111-.033-.036-.072-.069-.105-.105-.033-.035-.068-.066-.104-.104-.033-.036-.072-.069-.106-.106-.035-.038-.075-.071-.11-.11-.033-.035-.068-.065-.103-.102-.034-.038-.073-.07-.108-.107-.031-.037-.068-.067-.104-.104-.035-.039-.074-.074-.11-.111-.034-.037-.071-.068-.104-.104-.032-.035-.068-.066-.103-.103-.036-.039-.077-.074-.114-.113-.031-.034-.065-.064-.099-.1-.036-.039-.076-.074-.113-.113-.032-.035-.069-.067-.104-.104-.033-.036-.069-.068-.104-.104-.033-.037-.072-.071-.107-.108-.034-.038-.073-.071-.108-.108-.032-.035-.069-.068-.104-.104-.035-.038-.072-.071-.108-.109-.033-.035-.069-.066-.104-.104-.033-.037-.069-.068-.104-.104-.035-.038-.074-.071-.109-.11-.033-.035-.07-.067-.104-.104-.034-.037-.073-.07-.106-.107-.033-.035-.07-.067-.104-.104-.035-.038-.074-.072-.109-.109-.032-.037-.071-.068-.104-.104-.031-.035-.068-.065-.102-.101-.037-.041-.076-.076-.115-.117-.033-.035-.07-.067-.104-.104-.031-.033-.065-.064-.099-.099-.037-.039-.078-.075-.114-.114-.033-.036-.071-.068-.104-.104-.031-.035-.068-.066-.102-.103-.036-.039-.076-.073-.113-.112-.033-.037-.07-.068-.104-.104s-.07-.067-.104-.104-.071-.069-.104-.105c-.035-.038-.074-.072-.109-.109-.033-.035-.068-.066-.104-.102-.035-.039-.074-.074-.11-.112-.033-.036-.071-.068-.104-.104-.033-.037-.072-.07-.106-.107-.033-.036-.07-.068-.104-.104-.033-.038-.072-.071-.107-.108-.033-.036-.069-.067-.104-.103-.034-.038-.073-.073-.11-.111-.032-.036-.068-.067-.103-.102-.034-.037-.071-.07-.106-.107-.035-.038-.074-.072-.109-.109-.033-.036-.07-.068-.104-.104-.033-.037-.071-.069-.105-.105-.034-.037-.072-.07-.105-.106-.035-.037-.072-.07-.106-.106-.034-.038-.072-.071-.106-.107-.035-.037-.072-.07-.107-.107-.032-.036-.069-.067-.104-.102-.033-.038-.072-.071-.107-.109s-.074-.072-.11-.11c-.03-.035-.067-.065-.101-.099-.033-.038-.072-.072-.107-.109-.034-.038-.072-.071-.107-.109-.033-.036-.07-.068-.104-.104-.034-.038-.073-.071-.108-.108-.033-.037-.072-.069-.105-.106s-.071-.069-.104-.105c-.035-.038-.074-.072-.109-.109-.032-.035-.068-.065-.102-.1-.035-.038-.072-.072-.109-.11-.034-.038-.072-.072-.108-.109-.033-.037-.071-.069-.104-.105-.033-.037-.071-.069-.105-.105-.033-.037-.07-.07-.105-.106-.033-.036-.07-.069-.104-.104-.034-.038-.072-.071-.106-.108-.035-.038-.074-.072-.109-.109-.033-.035-.069-.067-.104-.102-.033-.037-.072-.07-.107-.107-.034-.038-.072-.071-.107-.108-.033-.037-.07-.068-.105-.104-.032-.037-.07-.069-.104-.105-.034-.038-.071-.071-.106-.108-.035-.036-.071-.069-.105-.105-.034-.038-.073-.071-.107-.108-.033-.036-.07-.068-.104-.104-.034-.037-.072-.07-.106-.107-.033-.037-.07-.069-.104-.105-.034-.037-.072-.07-.106-.106-.035-.038-.074-.072-.109-.109-.032-.036-.068-.067-.103-.102-.034-.038-.073-.072-.108-.109-.033-.036-.07-.068-.104-.104-.034-.037-.071-.07-.106-.106-.033-.038-.072-.071-.107-.109-.034-.037-.072-.069-.105-.105-.033-.036-.07-.068-.104-.104-.034-.037-.072-.07-.106-.106-.033-.037-.072-.07-.105-.107-.035-.037-.073-.071-.108-.107-.032-.037-.071-.069-.104-.105-.034-.037-.072-.07-.106-.107s-.071-.069-.104-.105c-.034-.037-.072-.07-.106-.106-.034-.037-.073-.07-.106-.107-.034-.037-.071-.069-.105-.105-.034-.037-.072-.07-.105-.107-.035-.037-.072-.07-.106-.106-.035-.038-.074-.072-.108-.109-.033-.036-.07-.067-.104-.103-.034-.037-.073-.07-.107-.107-.035-.038-.072-.071-.107-.109-.033-.036-.07-.067-.104-.102-.034-.038-.073-.072-.108-.11-.033-.036-.071-.068-.105-.104-.033-.037-.07-.069-.104-.104-.034-.038-.073-.072-.108-.109-.033-.037-.071-.069-.104-.105-.033-.037-.071-.069-.105-.105-.034-.037-.072-.07-.105-.107-.035-.037-.072-.07-.107-.107-.033-.037-.071-.069-.104-.105-.035-.037-.074-.07-.107-.107-.035-.038-.074-.072-.109-.109-.033-.036-.07-.067-.104-.103-.034-.037-.072-.07-.106-.106-.034-.038-.071-.071-.106-.107-.035-.038-.072-.071-.107-.108-.034-.036-.07-.069-.105-.105-.033-.037-.07-.069-.104-.105-.034-.037-.071-.069-.104-.105-.035-.038-.074-.071-.108-.108-3.009-3.261-7.496-5.066-12.157-4.436a1.84 1.84 0 0 1-1.189-.219c-3.149-1.682-7-1.104-9.561 1.41a8.152 8.152 0 0 0-1.541 9.499c.17.332.223.631.146 1-.155.756-.17 1.529-.205 2.335.027.45.035.937.086 1.419a14.032 14.032 0 0 0 4.39 8.842c.037.034.07.071.106.105.037.035.07.072.106.105.037.035.07.072.106.106.037.036.072.073.109.108.036.035.069.072.105.104.036.034.068.071.104.104.036.033.068.07.104.104.037.035.071.073.108.107.037.035.07.074.107.107.036.034.07.072.106.106s.07.071.106.106c.037.034.071.072.108.106.036.034.068.069.104.104.036.033.069.07.105.104.036.032.068.069.104.104.038.035.073.074.111.109.036.034.068.07.104.104.038.037.072.074.11.11.035.033.067.069.103.103.037.037.072.074.109.109.036.033.068.07.104.104.037.034.07.073.107.106.036.035.07.072.106.106.036.034.069.071.105.104.036.034.069.071.106.105.036.035.069.072.106.105.037.035.071.073.109.108.036.034.068.071.104.104.037.035.07.071.107.106.037.034.07.072.107.106.037.035.071.072.108.107.034.032.065.067.1.1l.112.113c.036.033.069.07.106.104.035.032.066.069.102.103.039.036.074.076.113.112.035.033.067.069.103.103.036.035.07.072.106.106.037.035.07.072.107.106.036.035.069.072.106.105.036.034.069.072.106.105.037.035.071.074.109.108.035.034.067.07.103.104.038.035.073.074.111.109.035.033.067.069.103.103.036.034.07.073.107.106.036.035.069.072.106.106.037.035.072.073.109.108.035.033.066.068.101.102.039.037.075.077.114.113.033.031.063.065.097.098.039.037.076.078.115.115.035.033.067.068.102.102.036.034.069.072.105.105.038.035.074.074.112.111.035.032.067.067.102.102.037.035.071.072.109.107.036.035.069.071.104.104.036.034.069.071.105.104.037.035.07.072.107.107s.07.072.107.107c.036.033.069.07.105.104.038.036.072.075.11.11.035.032.066.069.102.102.037.035.071.074.109.108.036.033.069.07.105.105.037.033.07.071.106.105.036.033.069.07.105.105.037.034.071.072.108.107.037.034.07.072.107.105.037.035.071.074.108.108.036.033.069.07.104.104.036.033.069.07.105.104.036.035.069.072.105.105.038.037.072.074.11.109.035.033.067.07.103.104.037.034.072.073.109.108.036.033.068.07.104.104s.069.071.105.106c.038.035.073.073.111.109.035.034.068.07.104.104.036.035.069.071.105.105.037.035.07.072.106.105.037.035.07.072.106.106.038.035.072.073.109.108.035.033.068.07.104.104.037.035.071.073.107.107.036.033.069.07.105.105.036.033.069.07.105.104.037.036.072.073.11.108.036.035.069.071.105.105.036.034.069.07.106.105.036.033.069.071.105.104.037.035.07.072.107.106.036.035.071.074.108.107.035.034.068.071.104.105.036.033.069.07.104.104.037.034.069.072.105.104.037.037.07.074.107.109.035.033.067.069.104.104.038.035.073.074.11.111.035.032.068.068.104.102.036.035.069.072.105.107.037.035.072.073.111.109.034.033.066.069.103.104.036.033.069.072.106.105.037.035.07.073.107.107.036.035.068.07.105.104.035.035.069.072.106.107.036.034.069.071.104.104s.068.07.104.104c.038.036.073.075.11.11.035.033.068.069.104.104.038.036.072.074.11.109.036.033.067.07.104.104.034.034.067.071.104.104.038.035.072.074.111.11.035.034.068.071.105.104.036.035.068.072.105.105.035.033.066.069.104.104.037.034.068.071.105.104.037.036.072.075.11.111.036.033.068.07.104.104.037.035.07.073.107.108.034.033.066.069.103.103l.106.107c.037.035.071.073.109.107.035.033.066.07.104.104.037.036.072.074.11.11.034.031.065.068.101.101.039.036.074.075.111.111.036.034.07.071.106.106.034.032.067.068.103.103.037.035.071.073.109.108.035.035.068.071.105.105.035.034.068.071.104.104.037.037.071.074.11.11.033.033.065.069.102.103.036.035.07.072.105.105.039.037.074.076.113.113.033.031.063.064.098.098.039.036.074.076.112.112.036.034.068.069.105.104.034.033.067.069.104.104.037.036.073.076.112.111.033.031.063.066.097.099.039.037.075.077.114.112.035.033.065.068.101.102.037.035.07.073.107.107.037.035.072.074.109.109.035.033.066.069.103.104.038.035.072.072.109.107.036.034.069.072.104.105.037.036.072.074.109.107.035.035.068.071.104.104.035.034.068.071.104.104.036.035.069.072.106.106.037.035.069.072.106.106.036.035.069.072.106.105.035.035.069.072.105.107.037.033.07.072.107.105.035.034.068.072.105.106.036.034.07.071.107.106.035.033.068.07.104.104.037.034.07.071.107.106.035.034.068.071.105.105.036.035.069.072.106.105.037.037.071.074.11.11.033.032.064.068.101.101.037.035.069.074.108.108.035.034.067.071.104.104.037.035.072.074.109.109.037.034.07.071.105.105.035.031.066.068.102.102.039.037.076.077.115.114.033.03.063.065.098.099.039.036.074.076.113.113.035.033.067.068.104.102.037.035.07.074.107.107.035.034.067.071.104.104.036.035.068.072.105.106.039.036.074.076.112.112.033.031.064.066.099.098.037.036.072.075.111.111.036.035.069.072.105.105.035.034.068.07.104.104.037.034.071.071.107.106.035.034.068.071.105.105.037.035.069.072.106.105.036.035.069.072.104.106.039.036.073.075.111.11.034.031.066.068.102.101l.109.11c.035.033.068.07.104.104.037.035.07.072.106.106s.069.071.106.106c.035.033.068.071.105.104.035.034.069.073.106.108.034.032.067.068.103.103.039.037.075.077.114.114.035.033.067.068.103.102.037.035.07.073.107.107.036.033.068.07.104.104.037.035.072.073.108.108.036.034.069.071.106.104l.101.104c.04.037.076.078.116.115.034.031.066.067.102.101.037.035.07.073.107.106.037.035.07.073.107.107.035.033.065.068.102.102.037.035.07.074.107.109s.07.072.107.107l.109.107c.035.033.068.07.104.104.036.034.07.071.106.106.036.033.069.07.106.104.035.034.068.071.105.106.036.034.068.071.105.105.037.035.069.072.106.105.036.035.069.073.106.108.037.034.069.071.106.104.036.035.07.072.106.106.035.034.068.071.105.104.036.035.068.072.105.105.035.034.068.071.104.105.037.035.07.072.107.107s.072.074.111.109c.035.033.065.068.102.102.037.035.07.074.109.109.035.033.066.068.104.104.035.033.066.07.104.104.037.035.071.074.108.109s.071.072.108.106c.035.035.068.072.105.106.035.033.068.07.105.104.037.036.072.075.111.11.032.031.063.066.099.099.038.036.071.076.11.111.035.034.068.071.104.104.036.034.069.071.106.105.037.036.071.074.108.109.034.031.065.066.101.1l.112.113c.035.033.067.068.103.103.037.036.072.074.109.109.036.032.068.069.104.104.036.035.069.072.106.106.035.035.068.072.105.105l.105.107c.037.035.071.072.108.107.035.033.067.068.103.103.039.037.073.076.112.11.034.033.067.07.103.104.035.034.068.071.104.105.036.033.07.072.106.106.037.034.07.072.107.107.036.032.068.069.104.104.036.035.069.073.106.107.038.036.074.075.112.11.034.032.063.067.099.1.037.035.072.074.109.109.036.033.068.07.105.104l.105.106.105.105c.035.034.068.07.104.104.039.037.075.078.114.115.033.031.066.067.102.101.036.034.069.071.106.106.036.034.069.071.106.105.035.035.068.072.105.105.036.035.068.072.105.106.037.035.07.071.106.106.037.035.072.073.108.108.035.033.067.069.103.103.038.035.072.074.11.109.035.033.068.07.104.104.036.035.069.072.106.106.036.035.069.072.106.106.035.035.068.072.105.105.037.035.07.073.107.108.037.034.069.071.105.104.036.034.068.071.105.105.035.033.066.068.103.104.036.034.069.072.108.107.037.035.07.074.107.109s.071.072.107.106c.037.035.072.072.107.106.034.033.066.068.102.101.037.036.072.075.109.11.035.033.066.068.103.104.036.034.071.072.108.107s.069.072.106.105c.036.035.069.072.106.106.035.035.069.073.106.108.037.033.07.072.106.105.037.034.068.07.104.104.036.035.07.072.106.106.035.034.068.071.105.104.036.035.069.072.106.106a14.133 14.133 0 0 0 11.989 3.729c.246-.038.453.003.672.113 1.521.767 3.152.953 4.798.688 5.337-.801 8.333-6.328 6.175-11.336z" fill="url(#d)" opacity=".4"/><path d="M46.085 35.496a.992.992 0 0 1-.081-.627c.339-1.676.352-3.355.072-5.044-1.227-7.441-8.236-12.658-15.688-11.65a1.84 1.84 0 0 1-1.189-.219c-3.149-1.682-7-1.104-9.561 1.41a8.152 8.152 0 0 0-1.541 9.499c.17.332.223.631.146 1-.155.755-.17 1.528-.205 2.335.027.448.035.936.086 1.419.843 8.063 8.229 13.722 16.272 12.464.246-.038.453.003.672.112 1.521.768 3.152.953 4.799.689 5.379-.853 8.375-6.38 6.218-11.388zm-7.011 3.759c-.902 1.028-2.04 1.687-3.331 2.058-2.425.697-4.872.723-7.284-.004-2.195-.662-3.814-2.021-4.459-4.302-.457-1.616.586-2.825 2.197-2.636.695.082 1.153.503 1.479 1.083.204.362.376.747.559 1.123.599 1.228 1.562 1.92 2.931 2.069 1.121.123 2.205.043 3.242-.426.4-.184.756-.434 1.046-.769.774-.896.636-2.163-.315-2.868-.921-.682-2.022-.861-3.1-1.104-1.536-.344-3.078-.668-4.523-1.313-1.494-.666-2.707-1.633-3.098-3.321-.455-1.958.091-3.616 1.659-4.887 1.384-1.121 3.05-1.483 4.773-1.634.399-.035.803-.005 1.204-.005 1.592-.043 3.144.167 4.581.9 1.102.562 2.012 1.327 2.541 2.476.26.563.385 1.163.217 1.762-.201.728-.697 1.234-1.449 1.387-.781.159-1.51.035-2.002-.692a19.741 19.741 0 0 1-.674-1.059c-.672-1.145-1.631-1.782-2.993-1.778-.621.003-1.24-.018-1.848.13-.547.132-1.047.359-1.462.744-.739.687-.711 1.629.078 2.257.52.413 1.134.644 1.771.805 1.49.381 2.989.733 4.478 1.123.812.212 1.585.53 2.336.907 3.49 1.752 3.241 5.931 1.446 7.974z" fill="#FFF"/></svg>