<svg height="64" viewBox="0 0 64 64" width="64" xmlns="http://www.w3.org/2000/svg" xmlns:xlink="http://www.w3.org/1999/xlink"><linearGradient gradientTransform="translate(-2192 -2908)" gradientUnits="userSpaceOnUse" id="a" x1="2256.029" x2="2224.03" y1="2972" y2="2940.001"><stop offset=".316" stop-color="#fff" stop-opacity="0"/><stop offset=".351" stop-color="#e9e9e9" stop-opacity=".05"/><stop offset=".454" stop-color="#acacac" stop-opacity=".202"/><stop offset=".557" stop-color="#787878" stop-opacity=".352"/><stop offset=".657" stop-color="#4d4d4d" stop-opacity=".498"/><stop offset=".753" stop-color="#2b2b2b" stop-opacity=".638"/><stop offset=".844" stop-color="#131313" stop-opacity=".772"/><stop offset=".929" stop-color="#050505" stop-opacity=".896"/><stop offset="1"/></linearGradient><path fill="url(#a)" opacity=".2" d="M64.029 64V30.059L49 15.029 15.059 48.971 30.088 64z"/><circle cx="32" cy="32" fill="#54769B" r="24"/><defs><circle cx="32.029" cy="32" id="b" r="24"/></defs><clipPath id="c"><use overflow="visible" xlink:href="#b"/></clipPath><linearGradient gradientTransform="matrix(1 0 0 -1 -274 -299)" gradientUnits="userSpaceOnUse" id="d" x1="351.834" x2="297.159" y1="-372.067" y2="-317.392"><stop offset=".561" stop-opacity="0"/><stop offset=".704"/></linearGradient><path clip-path="url(#c)" d="M76.05 66.995l-.028-.027-.078-.079-.027-.027-.078-.078-.029-.027-.076-.079-.028-.026c-.028-.027-.05-.051-.078-.08l-.028-.026-.078-.079-.041-.038-.064-.067-.028-.026c-.028-.026-.05-.051-.077-.079l-.018-.016-.089-.092c-.015-.014-.027-.023-.041-.037a2.087 2.087 0 0 0-.065-.068l-.029-.027c-.027-.027-.049-.051-.078-.078l-.016-.017-.09-.091-.053-.051-.055-.055c-.01-.011-.02-.019-.029-.027l-.077-.079-.017-.017-.09-.091-.041-.038-.065-.068-.017-.016-.09-.091a.602.602 0 0 0-.027-.026c-.028-.027-.051-.052-.078-.08-.016-.014-.027-.023-.041-.039l-.049-.049c0-.502.535-1.287 1.897-3.104 1.843-2.456 3.185-4.681 2.954-5.323a.385.385 0 0 0-.137-.145.453.453 0 0 0-.105-.106.442.442 0 0 0-.109-.106.377.377 0 0 0-.104-.104.428.428 0 0 0-.109-.108.392.392 0 0 0-.104-.104.453.453 0 0 0-.105-.106.458.458 0 0 0-.106-.105.421.421 0 0 0-.106-.105.417.417 0 0 0-.105-.106.468.468 0 0 0-.107-.107.482.482 0 0 0-.104-.104.446.446 0 0 0-.107-.106.44.44 0 0 0-.106-.106.407.407 0 0 0-.104-.104.406.406 0 0 0-.108-.108.423.423 0 0 0-.104-.104.43.43 0 0 0-.109-.109.423.423 0 0 0-.104-.104.411.411 0 0 0-.107-.105.395.395 0 0 0-.104-.106.44.44 0 0 0-.106-.106.432.432 0 0 0-.105-.105.453.453 0 0 0-.105-.106.466.466 0 0 0-.107-.106.41.41 0 0 0-.107-.105.391.391 0 0 0-.104-.104.445.445 0 0 0-.109-.108.407.407 0 0 0-.104-.104.44.44 0 0 0-.106-.106.44.44 0 0 0-.106-.106.42.42 0 0 0-.106-.105.406.406 0 0 0-.106-.105.4.4 0 0 0-.105-.105.417.417 0 0 0-.105-.106.472.472 0 0 0-.105-.106.457.457 0 0 0-.106-.105.42.42 0 0 0-.106-.105.423.423 0 0 0-.106-.106.407.407 0 0 0-.104-.104.435.435 0 0 0-.11-.109.413.413 0 0 0-.103-.102.41.41 0 0 0-.108-.109.442.442 0 0 0-.104-.104.402.402 0 0 0-.105-.107.429.429 0 0 0-.107-.106.383.383 0 0 0-.105-.104.416.416 0 0 0-.107-.108.462.462 0 0 0-.104-.104.5.5 0 0 0-.106-.105.421.421 0 0 0-.106-.105.417.417 0 0 0-.105-.106.472.472 0 0 0-.105-.106.478.478 0 0 0-.106-.105.421.421 0 0 0-.106-.105.413.413 0 0 0-.107-.106.424.424 0 0 0-.104-.104.407.407 0 0 0-.106-.106.434.434 0 0 0-.105-.106.45.45 0 0 0-.105-.105.455.455 0 0 0-.108-.107.442.442 0 0 0-.104-.104.422.422 0 0 0-.108-.108.392.392 0 0 0-.104-.104.417.417 0 0 0-.105-.106.472.472 0 0 0-.105-.106.478.478 0 0 0-.106-.105.428.428 0 0 0-.107-.105.38.38 0 0 0-.104-.105.4.4 0 0 0-.107-.108.383.383 0 0 0-.105-.104.44.44 0 0 0-.106-.106.442.442 0 0 0-.104-.104.416.416 0 0 0-.105-.106.472.472 0 0 0-.105-.106.478.478 0 0 0-.106-.105.42.42 0 0 0-.108-.107.441.441 0 0 0-.104-.104.421.421 0 0 0-.106-.105.407.407 0 0 0-.106-.106.434.434 0 0 0-.105-.106.45.45 0 0 0-.105-.105.447.447 0 0 0-.107-.106.412.412 0 0 0-.107-.106.424.424 0 0 0-.104-.104.472.472 0 0 0-.105-.106.478.478 0 0 0-.106-.105.421.421 0 0 0-.106-.105.434.434 0 0 0-.105-.106.446.446 0 0 0-.107-.106.397.397 0 0 0-.107-.106.391.391 0 0 0-.104-.104.426.426 0 0 0-.109-.107.409.409 0 0 0-.104-.105.426.426 0 0 0-.104-.105.432.432 0 0 0-.105-.105.43.43 0 0 0-.107-.107.424.424 0 0 0-.104-.104.438.438 0 0 0-.108-.108.462.462 0 0 0-.104-.104.415.415 0 0 0-.105-.105.423.423 0 0 0-.106-.106.434.434 0 0 0-.105-.106.45.45 0 0 0-.105-.105.439.439 0 0 0-.106-.105.423.423 0 0 0-.106-.106.43.43 0 0 0-.107-.107.484.484 0 0 0-.104-.104.478.478 0 0 0-.106-.105.439.439 0 0 0-.106-.105.434.434 0 0 0-.105-.106.459.459 0 0 0-.106-.106.436.436 0 0 0-.106-.104.392.392 0 0 0-.106-.106.421.421 0 0 0-.106-.105.394.394 0 0 0-.104-.105.423.423 0 0 0-.106-.106.434.434 0 0 0-.105-.106.447.447 0 0 0-.107-.106.442.442 0 0 0-.104-.104.414.414 0 0 0-.109-.109.482.482 0 0 0-.104-.104.43.43 0 0 0-.107-.107.423.423 0 0 0-.106-.106.423.423 0 0 0-.104-.104.457.457 0 0 0-.108-.108.442.442 0 0 0-.104-.104.39.39 0 0 0-.11-.108.419.419 0 0 0-.101-.103.405.405 0 0 0-.11-.109.423.423 0 0 0-.104-.104.459.459 0 0 0-.106-.106.438.438 0 0 0-.106-.105.432.432 0 0 0-.105-.105.429.429 0 0 0-.107-.106.406.406 0 0 0-.106-.106.442.442 0 0 0-.104-.104.452.452 0 0 0-.105-.106.45.45 0 0 0-.105-.105.443.443 0 0 0-.104-.104.395.395 0 0 0-.108-.109.45.45 0 0 0-.105-.105.464.464 0 0 0-.107-.105.391.391 0 0 0-.104-.104.463.463 0 0 0-.109-.108.423.423 0 0 0-.104-.104.443.443 0 0 0-.109-.107.433.433 0 0 0-.105-.105.43.43 0 0 0-.107-.107.423.423 0 0 0-.104-.104.415.415 0 0 0-.107-.107.416.416 0 0 0-.105-.105.415.415 0 0 0-.105-.105.43.43 0 0 0-.107-.107.395.395 0 0 0-.107-.105.424.424 0 0 0-.104-.105.412.412 0 0 0-.107-.106.424.424 0 0 0-.104-.104.44.44 0 0 0-.106-.106.423.423 0 0 0-.106-.106.421.421 0 0 0-.106-.105.425.425 0 0 0-.104-.105.44.44 0 0 0-.106-.106.413.413 0 0 0-.105-.104.44.44 0 0 0-.108-.108.441.441 0 0 0-.104-.104.39.39 0 0 0-.108-.107.426.426 0 0 0-.104-.105.463.463 0 0 0-.104-.105.437.437 0 0 0-.108-.107.424.424 0 0 0-.104-.104.422.422 0 0 0-.108-.108.423.423 0 0 0-.104-.104.399.399 0 0 0-.107-.107.462.462 0 0 0-.104-.104.398.398 0 0 0-.109-.108.426.426 0 0 0-.104-.105.413.413 0 0 0-.105-.104.386.386 0 0 0-.105-.106.428.428 0 0 0-.109-.108.423.423 0 0 0-.104-.104.414.414 0 0 0-.107-.107.407.407 0 0 0-.104-.104.423.423 0 0 0-.106-.106.421.421 0 0 0-.106-.105.385.385 0 0 0-.105-.105.423.423 0 0 0-.106-.106.405.405 0 0 0-.108-.107.377.377 0 0 0-.104-.104.453.453 0 0 0-.105-.106.48.48 0 0 0-.106-.106.457.457 0 0 0-.106-.105.43.43 0 0 0-.107-.107.44.44 0 0 0-.104-.104.426.426 0 0 0-.109-.107.41.41 0 0 0-.104-.105.462.462 0 0 0-.104-.104.406.406 0 0 0-.11-.109.377.377 0 0 0-.104-.104.424.424 0 0 0-.106-.107.42.42 0 0 0-.106-.105.371.371 0 0 0-.105-.105.401.401 0 0 0-.105-.106.44.44 0 0 0-.106-.106.459.459 0 0 0-.106-.106.442.442 0 0 0-.104-.104.42.42 0 0 0-.108-.107.407.407 0 0 0-.104-.104.413.413 0 0 0-.109-.108.383.383 0 0 0-.105-.104.408.408 0 0 0-.106-.107.407.407 0 0 0-.104-.104.379.379 0 0 0-.106-.107.426.426 0 0 0-.104-.105.455.455 0 0 0-.108-.107.424.424 0 0 0-.104-.104.37.37 0 0 0-.107-.106.41.41 0 0 0-.104-.105.439.439 0 0 0-.106-.105.44.44 0 0 0-.106-.106.43.43 0 0 0-.107-.106.423.423 0 0 0-.104-.104.426.426 0 0 0-.106-.108.476.476 0 0 0-.106-.104.392.392 0 0 0-.106-.106.442.442 0 0 0-.104-.105.42.42 0 0 0-.108-.107.485.485 0 0 0-.104-.105.423.423 0 0 0-.106-.106.395.395 0 0 0-.104-.106.411.411 0 0 0-.104-.106.426.426 0 0 0-.111-.109.391.391 0 0 0-.104-.104.45.45 0 0 0-.107-.108.442.442 0 0 0-.104-.104.409.409 0 0 0-.108-.109.424.424 0 0 0-.104-.104.422.422 0 0 0-.108-.108.407.407 0 0 0-.104-.104.393.393 0 0 0-.108-.108.426.426 0 0 0-.104-.105.43.43 0 0 0-.107-.107.409.409 0 0 0-.104-.105.415.415 0 0 0-.107-.107.435.435 0 0 0-.105-.106.449.449 0 0 0-.107-.107.433.433 0 0 0-.105-.105.424.424 0 0 0-.106-.107.423.423 0 0 0-.106-.106.41.41 0 0 0-.104-.105.442.442 0 0 0-.106-.107.417.417 0 0 0-.105-.106.43.43 0 0 0-.107-.107.415.415 0 0 0-.105-.105.424.424 0 0 0-.106-.107.411.411 0 0 0-.104-.106.45.45 0 0 0-.105-.105.417.417 0 0 0-.105-.106.409.409 0 0 0-.106-.107.407.407 0 0 0-.108-.108.424.424 0 0 0-.104-.104.411.411 0 0 0-.104-.106.44.44 0 0 0-.106-.106.442.442 0 0 0-.106-.107.432.432 0 0 0-.105-.105.415.415 0 0 0-.107-.107.399.399 0 0 0-.105-.105.417.417 0 0 0-.105-.106.43.43 0 0 0-.107-.107.417.417 0 0 0-.105-.106.401.401 0 0 0-.105-.106.434.434 0 0 0-.105-.106.43.43 0 0 0-.107-.107.41.41 0 0 0-.104-.105.423.423 0 0 0-.106-.106.424.424 0 0 0-.106-.107.415.415 0 0 0-.105-.105.41.41 0 0 0-.106-.108.433.433 0 0 0-.105-.105.43.43 0 0 0-.107-.107.427.427 0 0 0-.104-.106.426.426 0 0 0-.104-.105.422.422 0 0 0-.108-.108.41.41 0 0 0-.104-.105.44.44 0 0 0-.106-.106.411.411 0 0 0-.104-.106.445.445 0 0 0-.109-.108.39.39 0 0 0-.104-.103.387.387 0 0 0-.107-.108.417.417 0 0 0-.105-.106.43.43 0 0 0-.107-.107.409.409 0 0 0-.104-.105.409.409 0 0 0-.108-.109.426.426 0 0 0-.104-.105.405.405 0 0 0-.106-.105.38.38 0 0 0-.104-.106.47.47 0 0 0-.107-.108.44.44 0 0 0-.106-.106.392.392 0 0 0-.106-.106.393.393 0 0 0-.104-.105.457.457 0 0 0-.108-.108c-.407-.614-5.327-1.532-5.923-.638-1.189 1.786-1.798 2.764-2.23 3.534-.027-.025-.053-.052-.082-.074-.035-.035-.065-.076-.105-.106-.035-.036-.066-.077-.107-.107-.035-.035-.065-.076-.104-.105-.035-.035-.065-.076-.106-.106-.035-.035-.065-.076-.105-.106-.035-.035-.066-.076-.106-.106-.034-.035-.065-.076-.106-.106-.034-.035-.065-.076-.106-.106-.034-.035-.065-.076-.104-.105-.035-.036-.066-.077-.106-.107-.035-.036-.067-.076-.106-.106-.035-.035-.065-.076-.105-.106-.035-.035-.066-.076-.105-.106-.035-.036-.066-.077-.106-.107-.035-.035-.065-.076-.106-.106-.035-.035-.065-.076-.105-.106-.035-.035-.066-.076-.105-.106-.035-.035-.066-.076-.106-.106-.035-.036-.066-.077-.106-.107-.035-.035-.066-.076-.105-.106-.035-.035-.066-.076-.106-.106-.034-.036-.065-.077-.106-.107-.035-.035-.065-.076-.105-.106-.035-.035-.066-.076-.105-.106-.035-.036-.066-.077-.106-.107-.035-.035-.065-.075-.104-.105-.035-.036-.066-.077-.106-.107-.035-.035-.065-.076-.106-.106-.035-.035-.065-.076-.106-.106-.035-.035-.065-.076-.105-.105-.034-.036-.067-.077-.106-.107-.035-.035-.066-.076-.106-.106-.034-.035-.065-.075-.104-.105-.035-.036-.066-.077-.106-.107-.035-.036-.067-.077-.106-.107-.035-.035-.065-.075-.105-.105-.035-.035-.066-.077-.105-.106-.035-.036-.066-.077-.106-.107-.035-.035-.065-.076-.106-.106a1.108 1.108 0 0 0-.537-.313h-3c-1.61 0-3 1-3 1s-1.241.968-1 1c.026.003.074 0 .119-.002-.04.058-.057.103-.013.108.026.003.074 0 .12-.002-.04.058-.058.103-.013.109.026.003.074 0 .119-.002-.04.058-.058.103-.013.109.026.003.074 0 .119-.002-.04.058-.057.103-.013.109.026.003.074 0 .118-.002-.039.058-.057.103-.012.108.026.003.074 0 .12-.002-.04.058-.058.103-.013.109.026.003.074 0 .119-.002-.04.058-.057.103-.012.109.026.003.074 0 .118-.002-.039.058-.057.103-.012.109.026.003.074 0 .12-.002-.04.058-.058.103-.013.109.026.003.074 0 .119-.002-.04.058-.058.103-.013.109.026.003.074 0 .119-.002-.04.058-.057.103-.013.109.026.003.074 0 .119-.002-.04.058-.057.103-.013.109.026.003.074 0 .119-.002-.04.058-.057.102-.012.108.026.003.074 0 .119-.002-.04.058-.057.103-.013.109.026.003.074 0 .119-.002-.04.058-.057.103-.013.109.026.003.074 0 .119-.002-.039.058-.057.103-.012.108.026.003.074 0 .119-.002-.04.058-.057.103-.013.109.026.003.074 0 .119-.002-.04.058-.057.103-.013.109.019.002.056-.001.084-.002v.05c-.003.007.001.009 0 .015v1.023s.002 1.467-.22 2.625c-.021-.022-.042-.035-.062-.055a1.8 1.8 0 0 0-.108-.107 1.726 1.726 0 0 0-.104-.105 1.8 1.8 0 0 0-.108-.107 2.077 2.077 0 0 0-.105-.105 2.117 2.117 0 0 0-.106-.106 2.117 2.117 0 0 0-.106-.106 2.156 2.156 0 0 0-.107-.107 2.117 2.117 0 0 0-.106-.106 1.731 1.731 0 0 0-.105-.105 1.798 1.798 0 0 0-.107-.107 2.198 2.198 0 0 0-.108-.108 2.039 2.039 0 0 0-.104-.104 1.831 1.831 0 0 0-.108-.108 1.698 1.698 0 0 0-.104-.104 2.198 2.198 0 0 0-.108-.108 2.117 2.117 0 0 0-.106-.106 1.8 1.8 0 0 0-.108-.107 2.039 2.039 0 0 0-.104-.104 1.798 1.798 0 0 0-.107-.107 2.696 2.696 0 0 0-.107-.107 1.734 1.734 0 0 0-.106-.105 2.117 2.117 0 0 0-.106-.106 1.831 1.831 0 0 0-.108-.108 1.699 1.699 0 0 0-.104-.104 1.831 1.831 0 0 0-.108-.108 1.541 1.541 0 0 0-.107-.107 1.731 1.731 0 0 0-.105-.105 2.117 2.117 0 0 0-.106-.106 1.8 1.8 0 0 0-.108-.107 1.456 1.456 0 0 0-.104-.104 1.764 1.764 0 0 0-.106-.106 1.8 1.8 0 0 0-.108-.107 2.115 2.115 0 0 0-.105-.106 2.696 2.696 0 0 0-.107-.107 2.117 2.117 0 0 0-.106-.106 2.038 2.038 0 0 0-.104-.104 2.198 2.198 0 0 0-.108-.108 2.117 2.117 0 0 0-.106-.106 2.117 2.117 0 0 0-.106-.106 1.731 1.731 0 0 0-.105-.105 2.198 2.198 0 0 0-.108-.108 2.077 2.077 0 0 0-.105-.105 2.115 2.115 0 0 0-.105-.106 2.198 2.198 0 0 0-.108-.108 2.077 2.077 0 0 0-.105-.105 1.518 1.518 0 0 0-.107-.106 2.156 2.156 0 0 0-.107-.107 2.077 2.077 0 0 0-.105-.105 2.038 2.038 0 0 0-.104-.104 2.239 2.239 0 0 0-.109-.109 2.547 2.547 0 0 0-.104-.104 2.117 2.117 0 0 0-.106-.106 2.198 2.198 0 0 0-.108-.108 2.117 2.117 0 0 0-.106-.106 1.699 1.699 0 0 0-.104-.104 2.239 2.239 0 0 0-.109-.109 1.731 1.731 0 0 0-.105-.105 2.696 2.696 0 0 0-.107-.107c-.464-.501-.769-.403-1.545-.403-1.072 0-1.999.042-3 .042-1 0-1.128.637-1 .958 2 5 3.437 8.141 7.237 12.096.218.229.432.439.641.643.036.035.073.074.108.107.035.034.07.072.104.104.035.035.072.074.107.107.037.036.076.077.113.112.034.032.069.069.102.103.105.105.213.217.317.316.037.036.076.077.112.111l.102.103c.073.071.148.149.22.22.032.03.066.066.098.098.146.147.292.298.434.435l.099.099c.039.037.078.08.117.115l.097.098c.035.033.071.071.105.104.035.034.072.073.107.106s.071.072.106.105c.107.107.216.221.321.321l.111.11c.072.07.146.147.216.217.032.029.065.066.097.097.036.034.073.074.108.108.145.146.29.295.431.431.068.065.138.142.206.205l.106.106c.036.034.073.073.108.107.038.036.077.077.114.113.142.144.284.289.422.422.033.031.068.068.101.102.035.033.072.072.106.105l.113.111c.032.031.066.067.098.1.037.036.076.077.113.111.034.033.07.072.104.104.034.033.07.072.104.104.035.033.072.072.106.105.07.07.144.146.213.213.038.037.077.078.114.113l.099.1c.035.033.071.072.106.105s.071.072.105.105c.108.107.219.223.325.324l.215.215c.033.031.067.067.1.1.037.035.075.076.111.111.145.146.291.295.431.43l.098.099c.035.033.07.071.105.104s.072.072.105.105c.035.034.072.073.106.105.035.035.072.074.106.106l.105.106c.022.021.045.046.067.066.051.051.104.105.155.154.181.186.359.367.535.535.066.064.137.139.201.201.07.07.143.146.213.213.069.068.143.145.211.211.035.033.071.072.106.107.038.037.077.078.115.113l.104.104c.104.104.211.216.313.313l.105.106c.035.033.072.072.107.107l.031.029c.061.061.123.127.184.186.074.071.148.15.223.221l.055.056c.05.048.101.103.147.147.035.033.07.07.104.104l.105.105c.035.035.072.074.107.106l.214.216.108.106c.107.108.219.224.324.325.033.031.067.068.102.101.068.068.142.144.21.21l.212.213c.035.033.07.071.105.105.035.033.07.07.105.104.038.038.078.08.117.117.031.031.064.066.098.098l.105.106c.035.033.07.071.104.104.035.033.072.072.106.105l.105.105c.022.021.045.047.067.067.049.048.101.103.147.147.035.035.072.074.107.107.068.068.143.145.211.211.109.108.221.225.327.326.032.031.065.067.099.098.033.033.069.072.104.104.035.035.074.075.109.108.021.021.043.046.064.065.049.048.1.103.146.147.039.037.078.076.114.113.032.03.066.066.099.099l.065.065c.05.047.101.102.147.146l.104.104c.071.071.146.149.217.219.069.066.142.143.209.207.034.035.071.074.105.106l.105.106c.037.035.073.074.108.107l.215.215c.072.071.147.149.22.219.031.031.064.066.097.097.034.034.071.073.106.106.039.037.078.078.116.115.032.031.063.066.097.096.035.035.071.074.105.106l.105.106.107.105.105.106.107.108.104.104.109.107c.036.037.074.076.11.11.142.144.283.289.421.423.073.071.148.15.223.221.032.031.066.068.101.101.069.067.141.144.209.209l.104.104c.035.035.072.074.106.106.035.034.071.073.106.106l.217.217c.072.072.148.15.222.22l.094.095.106.106.066.067c.049.047.1.1.146.146.038.038.078.08.117.116.031.031.063.066.097.098.034.033.069.072.104.104l.107.108.064.064c.05.048.101.102.147.146l.065.065c.049.048.1.103.146.147l.104.103.119.118c.214.222.423.432.629.629.033.033.068.07.104.104.075.075.153.156.229.229.066.064.136.138.201.201.035.033.069.07.104.104l.117.116.097.097.106.107.066.064c.047.047.098.101.146.146l.104.105c.035.035.072.073.107.106.033.034.07.073.105.106.039.037.08.08.118.117l.093.094c.037.035.076.076.111.111l.063.063c.049.047.1.1.146.146l.107.107.066.066c.049.047.1.102.147.147.069.067.142.146.211.211.069.068.144.146.212.212.073.072.148.151.223.221l.098.1c.035.033.07.07.104.104l.107.107.106.107.065.064c.049.048.101.102.147.146.034.033.069.072.104.104l.115.114c.033.031.066.068.101.101.034.033.069.071.104.104s.072.072.105.105c.035.034.072.073.107.106.033.034.07.073.104.106l.107.105c.034.035.071.074.106.107l.066.066.156.156c.031.029.063.064.096.094.034.034.07.073.105.105.035.035.071.074.106.106l.104.106.107.105c.035.035.071.074.105.107l.107.105.11.111c.164.168.327.333.485.486.05.048.102.103.149.148l.109.108c.034.032.069.071.104.104.034.032.068.069.103.103.036.034.073.073.108.108.057.056.114.116.172.172.051.051.105.106.157.156.031.03.063.064.095.094.035.035.071.074.105.106.035.034.072.073.107.106l.104.105.106.106.105.106.107.105c.037.038.078.08.117.117.031.029.063.066.097.097.034.033.069.072.104.104.035.033.071.072.106.105l.104.105c.035.035.072.074.107.106l.105.106c.035.035.072.074.107.107l.105.106c.07.067.143.146.211.21l.066.066c.049.049.101.103.147.147.038.036.075.077.112.112.035.033.07.07.104.104.104.105.213.217.315.315l.064.065c.049.047.1.1.146.146.035.034.072.073.107.106.036.037.075.077.112.112.144.146.288.294.429.429 3.184 3.099 5.37 3.28 7.217 3.357.5.021 0 0 1 0s1-1.441 1-2c0-1 1-2 2-2s2.715 1.715 4 3c1 1 1 1 2 1h3s2-.076 2-2c-.189-.76-.876-1.819-3.189-4.135z" fill="url(#d)" opacity=".3"/><path d="M33.021 40.995c1 0 1-1.44 1-2 0-1 1-2 2-2s2.715 1.715 4 3c1 1 1 1 2 1h3s2-.076 2-2c0-.625-.687-1.687-3-4-2-2-3.025-.968 0-5 1.842-2.456 3.184-4.681 2.953-5.323-.22-.613-5.347-1.589-5.953-.677-2 3-2.367 3.735-3 5-1 2-1.101 3-2 3-.91 0-1-1.941-1-3 0-3.306.479-5.644-1-6h-3c-1.61 0-3 1-3 1s-1.241.968-1 1c.298.04 2-.414 2 1v2s.009 4-1 4c-1 0-3-4-5-7-.785-1.177-1-1-2-1-1.072 0-1.999.042-3 .042-1 0-1.128.637-1 .958 2 5 3.437 8.141 7.237 12.096 3.485 3.63 5.813 3.822 7.763 3.904.5.023 0 0 1 0z" fill="#FFF"/></svg>